# xmcd CD database file
#
# Track frame offsets:
#	187
#	12247
#	26000
#	42510
#	63515
#	77695
#	99077
#	116532
#	131455
#	147207
#	156360
#
# Disc length: 2247 seconds
#
# Revision: 0
# Processed by: cddbd v1.5.1PL0 Copyright (c) Steve Scherf et al.
# Submitted via: CDex 1.50Beta7
#
DISCID=8908c50b
DTITLE=リチャード・クレイダーマン - 星空のピアニスト
DYEAR=1978
DGENRE=Easy Listening
TTITLE0=渚のアデリーヌ
TTITLE1=愛の秘密（１）
TTITLE2=海と子供
TTITLE3=川辺の妖精
TTITLE4=黒い夜
TTITLE5=星空のピアニスト
TTITLE6=銀河の彼方に
TTITLE7=愛の秘密（２）
TTITLE8=ロマンティック・セレナーデ
TTITLE9=思い出の旋律
TTITLE10=渚のアデリーヌ（ピアノ・ソロ）
EXTD=YEAR: 1978
EXTT0=
EXTT1=
EXTT2=
EXTT3=
EXTT4=
EXTT5=
EXTT6=
EXTT7=
EXTT8=
EXTT9=
EXTT10=
PLAYORDER=
